<svg width="96" height="96" viewBox="0 0 96 96" fill="none" xmlns="http://www.w3.org/2000/svg">
<path d="M64.0057 16C58.1798 16 52.7152 17.5588 48.0086 20.2802C57.5716 25.8109 64.0057 36.1414 64.0057 47.9779H32.0027C32.0027 59.8144 38.4368 70.145 47.9998 75.6669C52.7064 78.3882 58.1709 79.9471 63.9969 79.9471C81.6774 79.9471 95.9999 65.627 95.9999 47.9691C95.9999 30.3112 81.6774 16 64.0057 16Z" fill="url(#paint0_linear_1324_14750)"/>
<path d="M47.9998 20.28C38.4368 25.8108 32.0027 36.1413 32.0027 47.9778H64.0057C64.0057 36.1413 57.5716 25.8108 48.0086 20.28H47.9998Z" fill="url(#paint1_linear_1324_14750)"/>
<path d="M48.0001 20.2803C57.5631 25.8111 63.9972 36.1416 63.9972 47.9781H31.9942C31.9942 59.8146 38.4283 70.1451 47.9913 75.6671C43.2847 78.3884 37.8201 79.9472 31.9942 79.9472C14.3313 79.956 0 65.636 0 47.9781C0 30.3202 14.3313 16.0002 32.003 16.0002C37.8289 16.0002 43.2935 17.559 48.0001 20.2803Z" fill="url(#paint2_linear_1324_14750)"/>
<path style="mix-blend-mode:multiply" opacity="0.3" d="M32.0027 47.9778H64.0057L48.0262 75.6844C48.0262 75.6844 48.0086 75.6844 48.0086 75.6756C38.4456 70.1449 32.0115 59.8143 32.0115 47.9866L32.0027 47.9778Z" fill="url(#paint3_linear_1324_14750)"/>
<path style="mix-blend-mode:multiply" opacity="0.3" d="M32.0029 48.0309C32.0029 59.8674 38.437 70.1979 48 75.7198C43.2934 78.4412 37.8288 80 32.0029 80C26.177 80 20.73 78.4412 16.0234 75.7286L31.9941 48.0309H32.0029Z" fill="url(#paint4_linear_1324_14750)"/>
<defs>
<linearGradient id="paint0_linear_1324_14750" x1="89.1198" y1="27.44" x2="34.3999" y2="80.0001" gradientUnits="userSpaceOnUse">
<stop stop-color="#FBB03B"/>
<stop offset="1" stop-color="#F24D2C"/>
</linearGradient>
<linearGradient id="paint1_linear_1324_14750" x1="15.7941" y1="72.0031" x2="66.462" y2="23.4108" gradientUnits="userSpaceOnUse">
<stop stop-color="#FFCF8E"/>
<stop offset="1" stop-color="#FF8B79"/>
</linearGradient>
<linearGradient id="paint2_linear_1324_14750" x1="19.36" y1="18.0002" x2="36.08" y2="65.7601" gradientUnits="userSpaceOnUse">
<stop stop-color="#9669FF"/>
<stop offset="1" stop-color="#4726EC"/>
</linearGradient>
<linearGradient id="paint3_linear_1324_14750" x1="48.0086" y1="101.295" x2="48.0086" y2="48.8409" gradientUnits="userSpaceOnUse">
<stop offset="0.49" stop-color="white"/>
<stop offset="0.54" stop-color="#F2F2F2"/>
<stop offset="0.62" stop-color="#D1D1D1"/>
<stop offset="0.73" stop-color="#9B9B9B"/>
<stop offset="0.87" stop-color="#515151"/>
<stop offset="1"/>
</linearGradient>
<linearGradient id="paint4_linear_1324_14750" x1="22.2284" y1="90.8149" x2="41.1477" y2="59.9686" gradientUnits="userSpaceOnUse">
<stop offset="0.49" stop-color="white"/>
<stop offset="0.54" stop-color="#F2F2F2"/>
<stop offset="0.62" stop-color="#D1D1D1"/>
<stop offset="0.73" stop-color="#9B9B9B"/>
<stop offset="0.87" stop-color="#515151"/>
<stop offset="1"/>
</linearGradient>
</defs>
</svg>
